<svg id="vector" xmlns="http://www.w3.org/2000/svg" width="20" height="20" viewBox="0 0 20 20"><path fill="#ABABAB" d="M10,11.667C9.08,11.667 8.333,10.92 8.333,10C8.333,9.08 9.08,8.333 10,8.333C10.92,8.333 11.667,9.08 11.667,10C11.667,10.92 10.92,11.667 10,11.667Z" id="path_0"/><path fill="#ABABAB" d="M15.833,11.667C14.913,11.667 14.167,10.92 14.167,10C14.167,9.08 14.913,8.333 15.833,8.333C16.754,8.333 17.5,9.08 17.5,10C17.5,10.92 16.754,11.667 15.833,11.667Z" id="path_1"/><path fill="#ABABAB" d="M4.167,11.667C3.246,11.667 2.5,10.92 2.5,10C2.5,9.08 3.246,8.333 4.167,8.333C5.087,8.333 5.833,9.08 5.833,10C5.833,10.92 5.087,11.667 4.167,11.667Z" id="path_2"/></svg>