<svg width="25" height="24" viewBox="0 0 25 24" fill="none" xmlns="http://www.w3.org/2000/svg">
<g id="settings">
<g id="Group 161">
<path id="Vector" d="M12.5 14.8638C14.0815 14.8638 15.3636 13.5817 15.3636 12.0002C15.3636 10.4186 14.0815 9.13654 12.5 9.13654C10.9185 9.13654 9.63636 10.4186 9.63636 12.0002C9.63636 13.5817 10.9185 14.8638 12.5 14.8638Z" stroke="#E9E9E9" stroke-width="2" stroke-linecap="round" stroke-linejoin="round"/>
<path id="Vector_2" d="M19.5636 14.8636C19.4366 15.1515 19.3987 15.4709 19.4548 15.7806C19.511 16.0902 19.6586 16.3759 19.8786 16.6009L19.9359 16.6582C20.1134 16.8355 20.2542 17.046 20.3503 17.2778C20.4464 17.5096 20.4958 17.758 20.4958 18.0089C20.4958 18.2597 20.4464 18.5082 20.3503 18.7399C20.2542 18.9717 20.1134 19.1822 19.9359 19.3595C19.7586 19.537 19.5481 19.6779 19.3163 19.7739C19.0845 19.87 18.8361 19.9195 18.5852 19.9195C18.3343 19.9195 18.0859 19.87 17.8542 19.7739C17.6224 19.6779 17.4118 19.537 17.2345 19.3595L17.1773 19.3023C16.9523 19.0822 16.6666 18.9346 16.3569 18.8785C16.0473 18.8223 15.7279 18.8602 15.44 18.9873C15.1577 19.1083 14.9169 19.3092 14.7473 19.5653C14.5777 19.8214 14.4867 20.1215 14.4855 20.4286V20.5909C14.4855 21.0972 14.2843 21.5828 13.9263 21.9408C13.5683 22.2989 13.0827 22.5 12.5764 22.5C12.07 22.5 11.5845 22.2989 11.2264 21.9408C10.8684 21.5828 10.6673 21.0972 10.6673 20.5909V20.505C10.6599 20.1891 10.5576 19.8826 10.3738 19.6256C10.1899 19.3685 9.93297 19.1727 9.63636 19.0636C9.34846 18.9366 9.02909 18.8987 8.71944 18.9548C8.40979 19.011 8.12406 19.1586 7.89909 19.3786L7.84182 19.4359C7.66451 19.6134 7.45396 19.7542 7.2222 19.8503C6.99044 19.9464 6.74202 19.9958 6.49114 19.9958C6.24025 19.9958 5.99183 19.9464 5.76007 19.8503C5.52831 19.7542 5.31776 19.6134 5.14045 19.4359C4.96295 19.2586 4.82214 19.0481 4.72607 18.8163C4.62999 18.5845 4.58054 18.3361 4.58054 18.0852C4.58054 17.8343 4.62999 17.5859 4.72607 17.3542C4.82214 17.1224 4.96295 16.9118 5.14045 16.7345L5.19773 16.6773C5.41779 16.4523 5.5654 16.1666 5.62155 15.8569C5.67769 15.5473 5.63979 15.2279 5.51273 14.94C5.39173 14.6577 5.19081 14.4169 4.93472 14.2473C4.67862 14.0777 4.37852 13.9867 4.07136 13.9855H3.90909C3.40277 13.9855 2.91718 13.7843 2.55916 13.4263C2.20114 13.0683 2 12.5827 2 12.0764C2 11.57 2.20114 11.0845 2.55916 10.7264C2.91718 10.3684 3.40277 10.1673 3.90909 10.1673H3.995C4.31095 10.1599 4.61737 10.0576 4.87442 9.87376C5.13148 9.68991 5.32727 9.43297 5.43636 9.13636C5.56343 8.84846 5.60133 8.52909 5.54519 8.21944C5.48904 7.90979 5.34142 7.62406 5.12136 7.39909L5.06409 7.34182C4.88659 7.16451 4.74578 6.95396 4.6497 6.7222C4.55363 6.49044 4.50418 6.24202 4.50418 5.99114C4.50418 5.74025 4.55363 5.49183 4.6497 5.26007C4.74578 5.02831 4.88659 4.81776 5.06409 4.64045C5.24139 4.46295 5.45194 4.32214 5.6837 4.22607C5.91546 4.12999 6.16389 4.08054 6.41477 4.08054C6.66566 4.08054 6.91408 4.12999 7.14584 4.22607C7.3776 4.32214 7.58815 4.46295 7.76545 4.64045L7.82273 4.69773C8.04769 4.91779 8.33342 5.0654 8.64307 5.12155C8.95272 5.17769 9.27209 5.13979 9.56 5.01273H9.63636C9.91869 4.89173 10.1595 4.69081 10.3291 4.43472C10.4987 4.17862 10.5897 3.87852 10.5909 3.57136V3.40909C10.5909 2.90277 10.792 2.41718 11.1501 2.05916C11.5081 1.70114 11.9937 1.5 12.5 1.5C13.0063 1.5 13.4919 1.70114 13.8499 2.05916C14.208 2.41718 14.4091 2.90277 14.4091 3.40909V3.495C14.4103 3.80216 14.5013 4.10226 14.6709 4.35835C14.8405 4.61445 15.0813 4.81536 15.3636 4.93636C15.6515 5.06343 15.9709 5.10133 16.2806 5.04519C16.5902 4.98904 16.8759 4.84142 17.1009 4.62136L17.1582 4.56409C17.3355 4.38659 17.546 4.24578 17.7778 4.1497C18.0096 4.05363 18.258 4.00418 18.5089 4.00418C18.7597 4.00418 19.0082 4.05363 19.2399 4.1497C19.4717 4.24578 19.6822 4.38659 19.8595 4.56409C20.037 4.74139 20.1779 4.95194 20.2739 5.1837C20.37 5.41546 20.4195 5.66389 20.4195 5.91477C20.4195 6.16566 20.37 6.41408 20.2739 6.64584C20.1779 6.8776 20.037 7.08815 19.8595 7.26545L19.8023 7.32273C19.5822 7.54769 19.4346 7.83342 19.3785 8.14307C19.3223 8.45272 19.3602 8.77209 19.4873 9.06V9.13636C19.6083 9.41869 19.8092 9.65947 20.0653 9.82907C20.3214 9.99867 20.6215 10.0897 20.9286 10.0909H21.0909C21.5972 10.0909 22.0828 10.292 22.4408 10.6501C22.7989 11.0081 23 11.4937 23 12C23 12.5063 22.7989 12.9919 22.4408 13.3499C22.0828 13.708 21.5972 13.9091 21.0909 13.9091H21.005C20.6978 13.9103 20.3977 14.0013 20.1416 14.1709C19.8856 14.3405 19.6846 14.5813 19.5636 14.8636V14.8636Z" stroke="#E9E9E9" stroke-width="2" stroke-linecap="round" stroke-linejoin="round"/>
</g>
</g>
</svg>
