<svg id="vector" xmlns="http://www.w3.org/2000/svg" width="24" height="18" viewBox="0 0 24 18"><path fill="#ABABAB" d="M2,0C0.895,0 0,0.895 0,2V16C0,17.104 0.895,18 2,18H22C23.105,18 24,17.104 24,16V2C24,0.895 23.105,0 22,0H2ZM3.556,9.023C3.556,5.649 3.566,2.878 3.578,2.865C3.613,2.827 5.046,2.838 5.581,2.879C7.223,3.007 8.562,3.691 9.636,4.951C10.844,6.37 11.342,8.348 10.969,10.246C10.509,12.582 8.668,14.511 6.437,14.996C5.918,15.109 5.286,15.158 4.328,15.158H3.556V9.023ZM14.915,4.409C15.879,3.514 17.085,2.979 18.362,2.881C18.582,2.865 19.137,2.853 19.595,2.855L20.428,2.859L20.436,9.008L20.444,15.158H19.672C18.298,15.158 17.531,15.056 16.793,14.778C15.947,14.458 15.301,14.024 14.63,13.321C13.952,12.611 13.528,11.905 13.231,10.994C12.46,8.628 13.111,6.084 14.915,4.409Z" fill-rule="evenodd" id="path_0"/></svg>